<?xml version="1.0" encoding="utf-8"?>
<!-- Generator: Adobe Illustrator 25.2.1, SVG Export Plug-In . SVG Version: 6.00 Build 0)  -->
<svg version="1.1" id="Layer_1" xmlns="http://www.w3.org/2000/svg" xmlns:xlink="http://www.w3.org/1999/xlink" x="0px" y="0px"
	 width="20px" height="20px" viewBox="0 0 20 20" style="enable-background:new 0 0 20 20;" xml:space="preserve">
<style type="text/css">
	.st0{fill-rule:evenodd;clip-rule:evenodd;fill:#00E7A8;}
</style>
<g id="Page-1">
	<path id="Combined-Shape_1_" class="st0" d="M15.4,2.1c0.9,0,1.2,0.1,1.5,0.3c0.3,0.2,0.6,0.4,0.8,0.8C17.9,3.4,18,3.8,18,4.7v10.9
		c0,0.9-0.1,1.2-0.3,1.5c-0.2,0.3-0.4,0.6-0.8,0.8c-0.3,0.2-0.6,0.3-1.5,0.3H4.6c-0.9,0-1.2-0.1-1.5-0.3s-0.6-0.4-0.8-0.8
		S2,16.4,2,15.5V4.7c0-0.9,0.1-1.2,0.3-1.5S2.7,2.5,3,2.4s0.6-0.3,1.5-0.3H15.4z M6.7,5.9h-2v5.5c0,2.1,1.6,3.6,3.7,3.6
		c2.1,0,3.7-1.6,3.7-3.6V5.9h-2v5.4c0,1-0.7,1.7-1.7,1.7c-1,0-1.7-0.7-1.7-1.7V5.9z M15.5,8.2h-1.9v6.6h1.9V8.2z M14.5,5.1
		c-0.7,0-1.2,0.5-1.2,1.2c0,0.7,0.5,1.2,1.2,1.2c0.7,0,1.2-0.5,1.2-1.2C15.7,5.6,15.2,5.1,14.5,5.1z"/>
</g>
</svg>
