<?xml version="1.0" encoding="utf-8"?>
<!-- Generator: Adobe Illustrator 27.6.1, SVG Export Plug-In . SVG Version: 6.00 Build 0)  -->
<svg version="1.1" id="Layer_1" xmlns="http://www.w3.org/2000/svg" xmlns:xlink="http://www.w3.org/1999/xlink" x="0px" y="0px"
	 width="98px" height="20px" viewBox="0 0 98 20" style="enable-background:new 0 0 98 20;" xml:space="preserve">
<style type="text/css">
	.st0{fill-rule:evenodd;clip-rule:evenodd;fill:#9FE870;}
	.st1{fill:#FFFFFF;}
</style>
<path class="st0" d="M5,0h15v5v10l-5,5V5H0L5,0z M0,16.5V10h6.5L0,16.5z M10,20H3.6l6.4-6.4V20z"/>
<path class="st1" d="M40.6,8.2c0,4.7-2.8,7.6-7.2,7.6c-4.5,0-7.2-2.9-7.2-7.6s2.8-7.8,7.2-7.8S40.6,3.4,40.6,8.2z M29.3,8.2
	c0,3.2,1.5,5.1,4,5.1s4-2,4-5.1c0-3.2-1.5-5.2-4-5.2C30.8,3.1,29.3,5.1,29.3,8.2z"/>
<path class="st1" d="M52.5,15.6h-2.9v-2h-0.1c-0.6,1.4-1.6,2.3-3.3,2.3c-2.4,0-4-1.5-4-4.1V4.6h3.1v6.5c0,1.5,0.7,2.3,2.1,2.3
	c1.3,0,2.2-0.9,2.2-2.5V4.5h3.1v11.1H52.5z"/>
<path class="st1" d="M58.4,2v2.6h2v2.2h-2v5.3c0,0.8,0.5,1.3,1.3,1.3c0.2,0,0.6,0,0.7,0v2.2c-0.4,0.1-0.8,0.1-1.4,0.1
	c-2.6,0-3.6-0.8-3.6-3.1V6.9h-1.6V4.7h1.5V2H58.4z"/>
<path class="st1" d="M61.8,16.5h2.9c0.2,0.8,1.1,1.3,2.2,1.3c1.5,0,2.5-0.8,2.5-2.1v-2h-0.1c-0.5,1.2-1.8,2-3.4,2
	c-2.7,0-4.5-2.1-4.5-5.5c0-3.5,1.8-5.6,4.6-5.6c1.6,0,2.8,0.8,3.4,2.1V4.8h2.9v10.8c0,2.6-2.2,4.4-5.5,4.4
	C64,19.8,62,18.4,61.8,16.5z M69.4,10.1c0-2-0.9-3.3-2.5-3.3c-1.5,0-2.5,1.3-2.5,3.3s0.9,3.2,2.5,3.2C68.5,13.3,69.4,12.1,69.4,10.1
	z"/>
<path class="st1" d="M74.5,4.6h2.9v2h0.1c0.4-1.4,1.3-2.1,2.6-2.1c0.4,0,0.7,0,0.8,0.1v2.7c-0.2-0.1-0.7-0.1-1.1-0.1
	c-1.5,0-2.4,0.9-2.4,2.5v6.3h-3.1L74.5,4.6L74.5,4.6z"/>
<path class="st1" d="M82.1,1.5c0-0.8,0.7-1.5,1.5-1.5c0.8,0,1.5,0.7,1.5,1.5S84.4,3,83.6,3C82.8,3.1,82.1,2.4,82.1,1.5z M82.2,4.6
	h2.9v11.1h-3.1V4.6H82.2z"/>
<path class="st1" d="M86.8,10.1c0-3.5,1.8-5.6,4.6-5.6c1.6,0,2.8,0.8,3.4,2.1h0.1V0.7H98v14.9h-2.9v-1.9c-0.6,1.2-1.8,2.1-3.4,2.1
	C88.6,15.8,86.8,13.6,86.8,10.1z M89.9,10.1c0,2,0.9,3.3,2.5,3.3c1.5,0,2.5-1.3,2.5-3.3s-0.9-3.3-2.5-3.3
	C90.8,6.8,89.9,8.1,89.9,10.1z"/>
</svg>
